<svg width="178" height="89" viewBox="0 0 178 89" fill="none" xmlns="http://www.w3.org/2000/svg">
<path opacity="0.2" d="M169.843 89.2217C174.348 89.2217 178.039 85.5622 177.626 81.0762C176.809 72.1811 174.655 63.444 171.225 55.1629C166.753 44.3649 160.197 34.5536 151.933 26.2892C143.668 18.0248 133.857 11.4691 123.059 6.9964C112.261 2.52373 100.688 0.221679 89 0.22168C77.3123 0.22168 65.7391 2.52373 54.9412 6.9964C44.1432 11.4691 34.3319 18.0248 26.0675 26.2892C17.8031 34.5536 11.2474 44.3649 6.77472 55.1629C3.34455 63.444 1.19105 72.1812 0.373526 81.0762C-0.0387738 85.5622 3.65193 89.2217 8.15683 89.2217V89.2217C12.6617 89.2217 16.2664 85.5585 16.7709 81.0819C17.5316 74.3312 19.2366 67.7069 21.8466 61.4058C25.4994 52.5871 30.8534 44.5742 37.603 37.8247C44.3525 31.0751 52.3654 25.7211 61.1841 22.0683C70.0028 18.4154 79.4547 16.5353 89 16.5353C98.5453 16.5353 107.997 18.4154 116.816 22.0682C125.635 25.7211 133.647 31.0751 140.397 37.8247C147.147 44.5742 152.501 52.5871 156.153 61.4058C158.763 67.7069 160.468 74.3312 161.229 81.0819C161.734 85.5585 165.338 89.2217 169.843 89.2217V89.2217Z" fill="white"/>
</svg>
